<svg width="188" height="38" viewBox="0 0 188 38" fill="none" xmlns="http://www.w3.org/2000/svg">
<path d="M60.8999 8.07008C61.6799 7.06008 62.2999 6.19008 62.9899 5.38008C65.7499 2.14008 68.5499 2.15008 71.3099 5.39008C72.9599 7.33008 72.9499 10.3101 70.9599 12.7001C69.7699 14.1301 68.1799 15.2301 66.7599 16.4701C66.4599 16.7401 66.1299 16.9701 65.7799 17.2501C66.7699 19.3301 67.8899 21.3101 68.6699 23.4101C69.6699 26.1001 70.3799 28.9001 71.2699 31.6301C71.5399 32.4501 71.9699 33.2201 72.3899 33.9701C72.9299 34.9401 72.8499 35.8201 72.0499 36.5601C71.2699 37.2801 70.4399 37.0501 69.5499 36.6201C67.8199 35.7701 67.3899 34.0701 66.8299 32.5001C65.1099 27.6901 63.4699 22.8601 61.7699 18.0501C61.6899 17.8101 61.1999 17.4701 61.1399 17.5101C60.8299 17.7301 60.4399 18.0301 60.3899 18.3501C60.2599 19.1701 60.4099 20.0301 60.2599 20.8401C59.8999 22.7401 59.4299 24.6301 58.9999 26.5201C58.8299 27.2701 58.6999 28.0501 58.4099 28.7601C58.2599 29.1301 57.8599 29.4701 57.4899 29.6501C56.7899 29.9901 55.9999 30.1501 55.3099 30.5001C54.1999 31.0701 52.9799 30.4601 53.1199 29.2201C53.3599 27.0801 53.7599 24.9701 54.0999 22.8401C54.4899 20.3801 54.9599 17.9301 55.2299 15.4501C55.4999 12.9501 55.5999 10.4201 55.7099 7.91008C55.7399 7.31008 55.5899 6.68008 55.4399 6.08008C55.0999 4.72008 55.4699 4.22008 56.8899 4.25008C58.6299 4.29008 59.5199 5.46008 60.2699 6.81008C60.4699 7.17008 60.6399 7.54008 60.8999 8.07008ZM60.6799 13.4801C60.6799 13.8901 60.5699 14.3501 60.7099 14.7101C60.8299 15.0201 61.3699 15.4801 61.4999 15.4101C62.6099 14.8801 64.0199 14.8801 64.7399 13.6201C65.9999 11.4301 67.0399 9.16008 67.2599 6.60008C67.3999 4.97008 66.7299 4.55008 65.2599 5.37008C62.0899 7.13008 61.0999 10.1401 60.6699 13.4701L60.6799 13.4801Z" fill="white"/>
<path d="M166.66 19.6498C166.01 22.4198 164.4 24.0498 162.27 25.0798C158.76 26.7798 155.06 27.3098 151.15 26.6398C149.08 26.2898 147.1 25.8698 145.28 24.8098C141.94 22.8498 140.57 19.9198 141.03 16.1298C141.43 12.8398 143.33 10.6098 146.27 9.26981C150 7.56981 153.9 7.49981 157.83 8.32981C161.15 9.02981 163.83 11.2998 164.84 14.1498C164.45 14.3098 164.06 14.5398 163.64 14.6398C162.79 14.8298 161.89 14.8498 161.07 15.1198C159.78 15.5398 158.96 15.3398 157.97 14.1998C155.8 11.7198 150.78 11.9598 148.67 14.3398C146.98 16.2498 147.19 20.1398 150.26 21.4398C152.78 22.4998 155.43 22.7198 157.96 21.4898C158.9 21.0298 159.59 20.0498 160.4 19.3198C160.64 19.0998 160.96 18.7498 161.2 18.7798C162.99 19.0198 164.77 19.3398 166.69 19.6598L166.66 19.6498Z" fill="white"/>
<path d="M140.02 26.47C137.98 26.47 136.03 26.51 134.08 26.43C133.74 26.42 133.21 25.9501 133.12 25.6101C132.57 23.4701 131.17 23.0201 129.16 23.2301C127.51 23.4001 125.83 23.3501 124.17 23.2301C123.08 23.1501 122.62 23.6601 122.27 24.5201C121.48 26.4701 121.47 26.47 119.39 26.47C117.85 26.47 116.32 26.47 114.6 26.47C115.86 23.95 117.04 21.5801 118.23 19.2001C119.89 15.8901 121.57 12.5901 123.18 9.25005C123.54 8.50005 123.99 8.23005 124.8 8.25005C126.67 8.30005 128.54 8.28005 130.42 8.25005C131.11 8.24005 131.51 8.42005 131.85 9.12005C134.49 14.61 137.2 20.0701 139.88 25.5401C140 25.7801 139.97 26.0901 140.02 26.4501V26.47ZM130.75 19.63C129.65 17.13 128.64 14.8301 127.63 12.5201C127.51 12.5301 127.39 12.54 127.27 12.56C126.25 14.86 125.24 17.15 124.14 19.63H130.75Z" fill="white"/>
<path d="M25.5098 26.47C23.3398 26.47 21.3898 26.51 19.4398 26.43C19.0898 26.42 18.5598 25.96 18.4498 25.6C17.8398 23.68 16.6998 22.94 14.6398 23.21C12.9598 23.44 11.2298 23.33 9.52979 23.23C8.52979 23.17 7.97979 23.55 7.65979 24.43C7.41979 25.08 7.12979 25.72 6.83979 26.42H0.0297852C0.769785 24.88 1.42979 23.43 2.13979 22.01C4.27979 17.74 6.44978 13.49 8.55978 9.20003C8.89978 8.51003 9.28979 8.23003 10.0698 8.25003C11.9398 8.31003 13.8198 8.32003 15.6898 8.25003C16.5298 8.22003 16.9498 8.53003 17.2898 9.24003C19.7598 14.4 22.2598 19.54 24.7398 24.69C24.9998 25.22 25.2098 25.78 25.5098 26.47ZM12.9898 12.55C12.8598 12.56 12.7298 12.58 12.5998 12.59C11.5898 14.88 10.5698 17.16 9.49979 19.57H16.0798C14.9898 17.09 13.9898 14.82 12.9798 12.55H12.9898Z" fill="white"/>
<path d="M101.75 20.1397V26.3997H95.1501C95.1301 25.9397 95.0801 25.5297 95.0801 25.1297C95.0801 19.9697 95.1001 14.8097 95.0601 9.64971C95.0601 8.66971 95.2501 8.25971 96.3501 8.26971C101.97 8.31971 107.59 8.30971 113.21 8.26971C114.11 8.26971 114.52 8.49971 114.43 9.45971C114.36 10.1997 114.37 10.9597 114.43 11.7097C114.51 12.6197 114.09 12.8597 113.26 12.8497C109.89 12.8197 106.52 12.8697 103.15 12.8197C102.1 12.7997 101.66 13.0397 101.71 14.1997C101.81 16.6297 101.47 16.4397 103.92 16.4397C106.5 16.4397 109.08 16.4597 111.66 16.4297C112.45 16.4197 112.77 16.6497 112.76 17.4897C112.69 20.5897 113.07 20.0197 110.31 20.0597C107.94 20.0897 105.56 20.0597 103.19 20.0697C102.74 20.0697 102.3 20.1197 101.75 20.1497V20.1397Z" fill="white"/>
<path d="M51.5701 15.7796C52.3501 16.0196 53.2501 16.0596 53.3601 16.3696C53.7101 17.3696 52.5501 17.2496 52.1101 17.6896C51.5801 18.2096 50.8801 18.8396 50.8001 19.4796C50.4901 22.1096 50.2701 24.7696 50.2501 27.4096C50.2301 29.5496 50.5801 31.6896 50.7101 33.8296C50.7601 34.6196 50.9601 35.5096 49.7701 35.7996C48.6501 36.0696 47.9301 35.8196 47.2701 34.7996C45.2501 31.6896 44.9001 28.3896 45.6001 24.8196C45.9501 23.0396 45.9901 21.2096 46.1901 19.2696C45.7701 19.2696 45.3301 19.2296 44.9001 19.2696C43.7501 19.3996 42.5901 19.4796 41.4701 19.7396C40.8501 19.8796 40.1301 20.2096 39.7701 20.6896C37.6701 23.4796 35.6801 26.3496 33.6101 29.1496C33.1401 29.7896 32.4701 30.2796 31.8901 30.8396L31.3901 30.4596C31.6701 29.8796 31.8901 29.2696 32.2401 28.7296C33.9101 26.1796 35.6201 23.6596 37.3001 21.1196C37.4501 20.8896 37.5001 20.5996 37.2701 20.5696C37.0101 20.1796 36.4601 19.6196 36.5601 19.4396C36.7801 19.0396 37.3301 18.6496 37.7801 18.5896C39.1301 18.4296 39.8401 17.6796 40.3901 16.4896C42.1501 12.7396 44.7301 9.49957 47.1401 6.15957C47.6501 5.45957 48.1201 4.71957 48.4701 3.92957C48.8801 3.00957 49.5801 3.00957 50.1901 3.38957C51.7101 4.33957 52.8901 5.97957 52.3001 7.99957C52.0001 9.04957 52.1001 10.2096 52.0201 11.3196C51.9501 12.2196 51.9001 13.1296 51.8101 14.0296C51.7501 14.6396 51.6501 15.2396 51.5801 15.7396L51.5701 15.7796ZM48.5501 6.64957C48.3901 6.58957 48.2401 6.52957 48.0801 6.46957C45.3201 9.97957 43.4601 13.9896 41.6801 18.1096C43.1701 18.0196 44.5101 17.8196 45.8101 17.4696C46.2001 17.3596 46.6801 16.8696 46.7701 16.4696C47.2301 14.5796 47.6001 12.6796 47.9401 10.7696C48.1901 9.39957 48.3401 8.01957 48.5401 6.64957H48.5501Z" fill="white"/>
<path d="M174.22 26.4703C174.22 22.3803 174.22 18.4803 174.22 14.5703C174.22 13.4103 173.654 12.8303 172.52 12.8303C171.06 12.8303 169.6 12.7903 168.15 12.8403C167.27 12.8703 167.02 12.5103 167.01 11.6703C166.95 8.28027 166.93 8.28027 170.27 8.28027C175.6 8.28027 180.93 8.28027 186.26 8.28027C186.71 8.28027 187.16 8.28027 187.82 8.28027C187.82 9.68027 187.86 10.9903 187.78 12.3003C187.77 12.5003 187.2 12.8003 186.88 12.8103C185.43 12.8703 183.96 12.9203 182.51 12.8103C181.27 12.7203 180.84 13.0803 180.88 14.3803C180.97 17.9603 180.87 21.5403 180.94 25.1203C180.96 26.2603 180.59 26.5503 179.51 26.5003C177.81 26.4203 176.11 26.4803 174.23 26.4803L174.22 26.4703Z" fill="white"/>
<path d="M77.9898 1.94045C76.8098 1.94045 75.6598 1.94045 74.5098 1.94045C73.4698 1.93045 72.3598 2.76045 71.0498 1.46045C73.3698 1.28045 75.3598 1.15045 77.3398 0.940452C77.7698 0.890452 78.1498 0.460452 78.5898 0.330452C79.0998 0.190452 79.8198 -0.0495479 80.1698 0.180452C81.6498 1.16045 83.2698 0.940452 84.8698 0.990452C86.3698 1.03045 87.8698 1.00045 89.3698 1.06045C89.8098 1.08045 90.2398 1.30045 90.7798 1.45045C89.9698 2.57045 88.9698 2.48045 88.0298 2.47045C86.8698 2.45045 85.6998 2.34045 84.5398 2.28045C83.1298 2.21045 82.9098 2.42045 82.8498 3.88045C82.8098 4.96045 82.8498 6.05045 82.7098 7.11045C82.2398 10.6205 81.8098 14.1405 81.1398 17.6105C80.6598 20.1105 79.9398 22.5805 79.1198 24.9905C78.4598 26.9405 77.5398 28.8005 76.6498 30.6605C76.5498 30.8705 75.8498 31.0005 75.5398 30.8805C74.2598 30.4005 73.7598 29.2905 74.0098 27.7405C74.2798 26.0305 74.5798 24.3205 74.8698 22.6105C75.3498 19.7905 75.8498 16.9805 76.2998 14.1605C76.9098 10.4005 77.4798 6.63045 78.0498 2.86045C78.0898 2.63045 78.0198 2.38045 77.9798 1.94045H77.9898Z" fill="white"/>
<path d="M92.62 26.4004H86.29V8.36035H92.62V26.4004Z" fill="white"/>
<path d="M26.7798 8.34961H29.7198V13.3296C30.7398 13.3296 31.5998 13.2596 32.4498 13.3596C32.7798 13.3996 33.3198 13.8196 33.3298 14.0696C33.3898 18.1396 33.3698 22.2196 33.3698 26.3796H26.7798V8.34961Z" fill="white"/>
<path d="M33.7101 8.10998V12.67C32.7901 12.67 31.8801 12.72 30.9901 12.64C30.7601 12.62 30.4701 12.23 30.3701 11.95C30.2601 11.66 30.3401 11.29 30.3401 10.96C30.3401 8.84665 31.4601 7.89998 33.7001 8.11998L33.7101 8.10998Z" fill="white"/>
</svg>
